{
    "asset" : {
        "generator" : "Khronos glTF Blender I/O v1.5.17",
        "version" : "2.0"
    },
    "scene" : 0,
    "scenes" : [
        {
            "name" : "Scene",
            "nodes" : [
                0,
                1,
                2,
                3,
                4
            ]
        }
    ],
    "nodes" : [
        {
            "mesh" : 0,
            "name" : "Room"
        },
        {
            "mesh" : 1,
            "name" : "Cube1"
        },
        {
            "mesh" : 2,
            "name" : "Cube2"
        },
        {
            "mesh" : 3,
            "name" : "MeshLight1"
        },
        {
            "mesh" : 4,
            "name" : "MeshLight2"
        }
    ],
    "materials" : [
        {
            "doubleSided" : true,
            "name" : "Gray",
            "pbrMetallicRoughness" : {
                "baseColorFactor" : [
                    0.2715952694416046,
                    0.2715952694416046,
                    0.2715952694416046,
                    1
                ],
                "metallicFactor" : 0
            }
        },
        {
            "doubleSided" : true,
            "emissiveFactor" : [
                1,
                1,
                1
            ],
            "name" : "MeshLight1",
            "pbrMetallicRoughness" : {
                "baseColorFactor" : [
                    0.03921600058674812,
                    0.5803920030593872,
                    0.7176470160484314,
                    1
                ],
                "metallicFactor" : 0
            }
        },
        {
            "doubleSided" : true,
            "emissiveFactor" : [
                1,
                1,
                1
            ],
            "name" : "MeshLight2",
            "pbrMetallicRoughness" : {
                "baseColorFactor" : [
                    0.7176470756530762,
                    0.20000001788139343,
                    0.03921568766236305,
                    1
                ],
                "metallicFactor" : 0
            }
        }
    ],
    "meshes" : [
        {
            "name" : "Cube",
            "primitives" : [
                {
                    "attributes" : {
                        "POSITION" : 0,
                        "NORMAL" : 1,
                        "TEXCOORD_0" : 2
                    },
                    "indices" : 3,
                    "material" : 0
                }
            ]
        },
        {
            "name" : "Cube.001",
            "primitives" : [
                {
                    "attributes" : {
                        "POSITION" : 4,
                        "NORMAL" : 5,
                        "TEXCOORD_0" : 6
                    },
                    "indices" : 7,
                    "material" : 0
                }
            ]
        },
        {
            "name" : "Cube.002",
            "primitives" : [
                {
                    "attributes" : {
                        "POSITION" : 8,
                        "NORMAL" : 9,
                        "TEXCOORD_0" : 10
                    },
                    "indices" : 11,
                    "material" : 0
                }
            ]
        },
        {
            "name" : "Cylinder",
            "primitives" : [
                {
                    "attributes" : {
                        "POSITION" : 12,
                        "NORMAL" : 13,
                        "TEXCOORD_0" : 14
                    },
                    "indices" : 15,
                    "material" : 1
                }
            ]
        },
        {
            "name" : "Cylinder.001",
            "primitives" : [
                {
                    "attributes" : {
                        "POSITION" : 16,
                        "NORMAL" : 17,
                        "TEXCOORD_0" : 18
                    },
                    "indices" : 15,
                    "material" : 2
                }
            ]
        }
    ],
    "accessors" : [
        {
            "bufferView" : 0,
            "componentType" : 5126,
            "count" : 24,
            "max" : [
                2,
                2.5,
                2
            ],
            "min" : [
                -2,
                0,
                -2
            ],
            "type" : "VEC3"
        },
        {
            "bufferView" : 1,
            "componentType" : 5126,
            "count" : 24,
            "type" : "VEC3"
        },
        {
            "bufferView" : 2,
            "componentType" : 5126,
            "count" : 24,
            "type" : "VEC2"
        },
        {
            "bufferView" : 3,
            "componentType" : 5123,
            "count" : 36,
            "type" : "SCALAR"
        },
        {
            "bufferView" : 4,
            "componentType" : 5126,
            "count" : 24,
            "max" : [
                -0.5675697922706604,
                0.5,
                -0.2085258960723877
            ],
            "min" : [
                -1.1735894680023193,
                0,
                -0.8145455121994019
            ],
            "type" : "VEC3"
        },
        {
            "bufferView" : 5,
            "componentType" : 5126,
            "count" : 24,
            "type" : "VEC3"
        },
        {
            "bufferView" : 6,
            "componentType" : 5126,
            "count" : 24,
            "type" : "VEC2"
        },
        {
            "bufferView" : 7,
            "componentType" : 5123,
            "count" : 36,
            "type" : "SCALAR"
        },
        {
            "bufferView" : 8,
            "componentType" : 5126,
            "count" : 24,
            "max" : [
                1.267165184020996,
                0.5,
                0.07185050845146179
            ],
            "min" : [
                0.5600781440734863,
                0,
                -0.6352365016937256
            ],
            "type" : "VEC3"
        },
        {
            "bufferView" : 9,
            "componentType" : 5126,
            "count" : 24,
            "type" : "VEC3"
        },
        {
            "bufferView" : 10,
            "componentType" : 5126,
            "count" : 24,
            "type" : "VEC2"
        },
        {
            "bufferView" : 11,
            "componentType" : 5123,
            "count" : 36,
            "type" : "SCALAR"
        },
        {
            "bufferView" : 12,
            "componentType" : 5126,
            "count" : 192,
            "max" : [
                -1.4993826150894165,
                1,
                -1.126502513885498
            ],
            "min" : [
                -1.6493827104568481,
                0,
                -1.2765026092529297
            ],
            "type" : "VEC3"
        },
        {
            "bufferView" : 13,
            "componentType" : 5126,
            "count" : 192,
            "type" : "VEC3"
        },
        {
            "bufferView" : 14,
            "componentType" : 5126,
            "count" : 192,
            "type" : "VEC2"
        },
        {
            "bufferView" : 15,
            "componentType" : 5123,
            "count" : 372,
            "type" : "SCALAR"
        },
        {
            "bufferView" : 16,
            "componentType" : 5126,
            "count" : 192,
            "max" : [
                1.6245239973068237,
                1,
                -1.2093647718429565
            ],
            "min" : [
                1.474523901939392,
                0,
                -1.3593648672103882
            ],
            "type" : "VEC3"
        },
        {
            "bufferView" : 17,
            "componentType" : 5126,
            "count" : 192,
            "type" : "VEC3"
        },
        {
            "bufferView" : 18,
            "componentType" : 5126,
            "count" : 192,
            "type" : "VEC2"
        }
    ],
    "bufferViews" : [
        {
            "buffer" : 0,
            "byteLength" : 288,
            "byteOffset" : 0
        },
        {
            "buffer" : 0,
            "byteLength" : 288,
            "byteOffset" : 288
        },
        {
            "buffer" : 0,
            "byteLength" : 192,
            "byteOffset" : 576
        },
        {
            "buffer" : 0,
            "byteLength" : 72,
            "byteOffset" : 768
        },
        {
            "buffer" : 0,
            "byteLength" : 288,
            "byteOffset" : 840
        },
        {
            "buffer" : 0,
            "byteLength" : 288,
            "byteOffset" : 1128
        },
        {
            "buffer" : 0,
            "byteLength" : 192,
            "byteOffset" : 1416
        },
        {
            "buffer" : 0,
            "byteLength" : 72,
            "byteOffset" : 1608
        },
        {
            "buffer" : 0,
            "byteLength" : 288,
            "byteOffset" : 1680
        },
        {
            "buffer" : 0,
            "byteLength" : 288,
            "byteOffset" : 1968
        },
        {
            "buffer" : 0,
            "byteLength" : 192,
            "byteOffset" : 2256
        },
        {
            "buffer" : 0,
            "byteLength" : 72,
            "byteOffset" : 2448
        },
        {
            "buffer" : 0,
            "byteLength" : 2304,
            "byteOffset" : 2520
        },
        {
            "buffer" : 0,
            "byteLength" : 2304,
            "byteOffset" : 4824
        },
        {
            "buffer" : 0,
            "byteLength" : 1536,
            "byteOffset" : 7128
        },
        {
            "buffer" : 0,
            "byteLength" : 744,
            "byteOffset" : 8664
        },
        {
            "buffer" : 0,
            "byteLength" : 2304,
            "byteOffset" : 9408
        },
        {
            "buffer" : 0,
            "byteLength" : 2304,
            "byteOffset" : 11712
        },
        {
            "buffer" : 0,
            "byteLength" : 1536,
            "byteOffset" : 14016
        }
    ],
    "buffers" : [
        {
            "byteLength" : 15552,
            "uri" : "data:application/octet-stream;base64,"
        }
    ]
}
