{
    "asset" : {
        "generator" : "Khronos glTF Blender I/O v1.5.17",
        "version" : "2.0"
    },
    "scene" : 0,
    "scenes" : [
        {
            "name" : "Scene",
            "nodes" : [
                0
            ]
        }
    ],
    "nodes" : [
        {
            "mesh" : 0,
            "name" : "Suzanne"
        }
    ],
    "materials" : [
        {
            "doubleSided" : true,
            "name" : "Material",
            "pbrMetallicRoughness" : {
                "baseColorFactor" : [
                    0.06902233511209488,
                    0.8000000715255737,
                    0.04337592050433159,
                    1
                ],
                "metallicFactor" : 0,
                "roughnessFactor" : 0.5
            }
        }
    ],
    "meshes" : [
        {
            "name" : "Suzanne",
            "primitives" : [
                {
                    "attributes" : {
                        "POSITION" : 0,
                        "NORMAL" : 1,
                        "TEXCOORD_0" : 2
                    },
                    "indices" : 3,
                    "material" : 0
                }
            ]
        }
    ],
    "accessors" : [
        {
            "bufferView" : 0,
            "componentType" : 5126,
            "count" : 2886,
            "max" : [
                1.329567551612854,
                1.0478870868682861,
                0.8134753704071045
            ],
            "min" : [
                -1.3568487167358398,
                -0.8867133259773254,
                -0.8079617619514465
            ],
            "type" : "VEC3"
        },
        {
            "bufferView" : 1,
            "componentType" : 5126,
            "count" : 2886,
            "type" : "VEC3"
        },
        {
            "bufferView" : 2,
            "componentType" : 5126,
            "count" : 2886,
            "type" : "VEC2"
        },
        {
            "bufferView" : 3,
            "componentType" : 5123,
            "count" : 11808,
            "type" : "SCALAR"
        }
    ],
    "bufferViews" : [
        {
            "buffer" : 0,
            "byteLength" : 34632,
            "byteOffset" : 0
        },
        {
            "buffer" : 0,
            "byteLength" : 34632,
            "byteOffset" : 34632
        },
        {
            "buffer" : 0,
            "byteLength" : 23088,
            "byteOffset" : 69264
        },
        {
            "buffer" : 0,
            "byteLength" : 23616,
            "byteOffset" : 92352
        }
    ],
    "buffers" : [
        {
            "byteLength" : 115968,
            "uri" : "data:application/octet-stream;base64,"
        }
    ]
}
