{
  "asset": {
    "generator": "Khronos glTF Blender I/O v1.4.40",
    "version": "2.0"
  },
  "scene": 0,
  "scenes": [
    {
      "name": "Scene",
      "nodes": [0, 1, 2]
    }
  ],
  "nodes": [
    {
      "mesh": 0,
      "name": "Sphere",
      "scale": [0.25, 0.25, 0.25],
      "translation": [-0.6000000238418579, 0.25, 0]
    },
    {
      "mesh": 1,
      "name": "Sphere.001",
      "scale": [0.25, 0.25, 0.25],
      "translation": [0, 0.25, 0]
    },
    {
      "mesh": 2,
      "name": "Sphere.002",
      "scale": [0.25, 0.25, 0.25],
      "translation": [0.6000000238418579, 0.25, 0]
    }
  ],
  "materials": [
    {
      "doubleSided": true,
      "name": "pbr",
      "pbrMetallicRoughness": {
        "baseColorFactor": [0.04620121791958809, 0.07532700896263123, 0.8000000715255737, 1],
        "roughnessFactor": 0
      }
    }
  ],
  "meshes": [
    {
      "name": "Sphere.005",
      "primitives": [
        {
          "attributes": {
            "POSITION": 0,
            "NORMAL": 1
          },
          "indices": 2,
          "material": 0
        }
      ]
    },
    {
      "name": "Sphere.006",
      "primitives": [
        {
          "attributes": {
            "POSITION": 3,
            "NORMAL": 4
          },
          "indices": 2,
          "material": 0
        }
      ]
    },
    {
      "name": "Sphere.007",
      "primitives": [
        {
          "attributes": {
            "POSITION": 5,
            "NORMAL": 6
          },
          "indices": 2,
          "material": 0
        }
      ]
    }
  ],
  "accessors": [
    {
      "bufferView": 0,
      "componentType": 5126,
      "count": 114,
      "max": [0.9999997615814209, 0.9999997019767761, 1],
      "min": [-0.9999996423721313, -0.9999995231628418, -1],
      "type": "VEC3"
    },
    {
      "bufferView": 1,
      "componentType": 5126,
      "count": 114,
      "type": "VEC3"
    },
    {
      "bufferView": 2,
      "componentType": 5123,
      "count": 672,
      "type": "SCALAR"
    },
    {
      "bufferView": 3,
      "componentType": 5126,
      "count": 114,
      "max": [0.9999997615814209, 0.9999997019767761, 1],
      "min": [-0.9999996423721313, -0.9999995231628418, -1],
      "type": "VEC3"
    },
    {
      "bufferView": 4,
      "componentType": 5126,
      "count": 114,
      "type": "VEC3"
    },
    {
      "bufferView": 5,
      "componentType": 5126,
      "count": 114,
      "max": [0.9999997615814209, 0.9999997019767761, 1],
      "min": [-0.9999996423721313, -0.9999995231628418, -1],
      "type": "VEC3"
    },
    {
      "bufferView": 6,
      "componentType": 5126,
      "count": 114,
      "type": "VEC3"
    }
  ],
  "bufferViews": [
    {
      "buffer": 0,
      "byteLength": 1368,
      "byteOffset": 0
    },
    {
      "buffer": 0,
      "byteLength": 1368,
      "byteOffset": 1368
    },
    {
      "buffer": 0,
      "byteLength": 1344,
      "byteOffset": 2736
    },
    {
      "buffer": 0,
      "byteLength": 1368,
      "byteOffset": 4080
    },
    {
      "buffer": 0,
      "byteLength": 1368,
      "byteOffset": 5448
    },
    {
      "buffer": 0,
      "byteLength": 1368,
      "byteOffset": 6816
    },
    {
      "buffer": 0,
      "byteLength": 1368,
      "byteOffset": 8184
    }
  ],
  "buffers": [
    {
      "byteLength": 9552,
      "uri": "data:application/octet-stream;base64,"
    }
  ]
}
