{
    "asset" : {
        "generator" : "Khronos glTF Blender I/O v1.5.17",
        "version" : "2.0"
    },
    "scene" : 0,
    "scenes" : [
        {
            "name" : "Scene",
            "nodes" : [
                0
            ]
        }
    ],
    "nodes" : [
        {
            "mesh" : 0,
            "name" : "bun_zipper_res2"
        }
    ],
    "materials" : [
        {
            "doubleSided" : true,
            "name" : "Normal_corrected",
            "pbrMetallicRoughness" : {
                "metallicFactor" : 0,
                "roughnessFactor" : 0.4000000059604645
            }
        }
    ],
    "meshes" : [
        {
            "name" : "bun_zipper_res2",
            "primitives" : [
                {
                    "attributes" : {
                        "POSITION" : 0,
                        "NORMAL" : 1
                    },
                    "indices" : 2,
                    "material" : 0
                }
            ]
        }
    ],
    "accessors" : [
        {
            "bufferView" : 0,
            "componentType" : 5126,
            "count" : 8146,
            "max" : [
                0.6093459725379944,
                1.8664300441741943,
                0.5868950486183167
            ],
            "min" : [
                -0.9457159638404846,
                0.33389097452163696,
                -0.6187359690666199
            ],
            "type" : "VEC3"
        },
        {
            "bufferView" : 1,
            "componentType" : 5126,
            "count" : 8146,
            "type" : "VEC3"
        },
        {
            "bufferView" : 2,
            "componentType" : 5123,
            "count" : 48642,
            "type" : "SCALAR"
        }
    ],
    "bufferViews" : [
        {
            "buffer" : 0,
            "byteLength" : 97752,
            "byteOffset" : 0
        },
        {
            "buffer" : 0,
            "byteLength" : 97752,
            "byteOffset" : 97752
        },
        {
            "buffer" : 0,
            "byteLength" : 97284,
            "byteOffset" : 195504
        }
    ],
    "buffers" : [
        {
            "byteLength" : 292788,
            "uri" : "bunny.bin"
        }
    ]
}
